<svg width="66" height="66" viewBox="0 0 66 66" fill="none" xmlns="http://www.w3.org/2000/svg">
<path d="M52.7915 15.5123L35.6677 6.28133C33.8652 5.29815 31.6804 5.29815 29.8779 6.28133L12.7541 15.5123C11.4979 16.1951 10.7332 17.506 10.7332 19.0081C10.7332 20.4828 11.4979 21.8211 12.7541 22.5038L29.8779 31.7348C30.7791 32.2264 31.7896 32.4722 32.7728 32.4722C33.756 32.4722 34.7665 32.2264 35.6677 31.7348L52.7915 22.5038C54.0478 21.8211 54.8125 20.5102 54.8125 19.0081C54.8125 17.506 54.0478 16.1951 52.7915 15.5123Z" fill="#F1DDC4"/>
<path d="M27.0648 34.9303L11.1155 26.9556C9.88648 26.3547 8.46633 26.4093 7.31928 27.1194C6.14492 27.8568 5.46216 29.0858 5.46216 30.4513V45.4995C5.46216 48.094 6.90962 50.4427 9.23102 51.617L25.1531 59.5917C25.6993 59.8648 26.3002 60.0014 26.901 60.0014C27.6111 60.0014 28.3211 59.8102 28.9493 59.4279C30.1236 58.7178 30.8064 57.4615 30.8064 56.096V41.0478C30.8337 38.426 29.3862 36.0773 27.0648 34.9303Z" fill="#0CAD8E"/>
<path d="M58.2261 27.1192C57.0518 26.4092 55.6316 26.3272 54.43 26.9554L38.5079 34.9301C36.1865 36.1044 34.739 38.4258 34.739 41.0476V56.0958C34.739 57.4613 35.4218 58.7176 36.5961 59.4277C37.2243 59.81 37.9344 60.0012 38.6444 60.0012C39.2453 60.0012 39.8461 59.8647 40.3923 59.5915L56.3144 51.6168C58.6358 50.4425 60.0833 48.1211 60.0833 45.4993V30.4511C60.0833 29.0856 59.4005 27.8566 58.2261 27.1192Z" fill="#0CAD8E"/>
</svg>
