<svg width="66" height="67" viewBox="0 0 66 67" fill="none" xmlns="http://www.w3.org/2000/svg">
<path d="M47.76 4.25427C47.1865 3.8719 46.4763 3.78991 45.8481 4.03573C41.9425 5.59254 37.6271 5.59254 33.7214 4.03573C33.0932 3.78991 32.3831 3.8719 31.8095 4.25427C31.236 4.63665 30.9082 5.26482 30.9082 5.94763V14.1414V22.3351C30.9082 23.4549 31.8368 24.3836 32.9566 24.3836C34.0765 24.3836 35.0051 23.4549 35.0051 22.3351V16.9273C36.5892 17.3097 38.1733 17.5281 39.7848 17.5281C42.3521 17.5281 44.9195 17.0365 47.3776 16.0533C48.1424 15.7529 48.6613 14.9881 48.6613 14.1414V5.94763C48.6613 5.26482 48.3336 4.63665 47.76 4.25427Z" fill="#F1DDC4"/>
<path d="M60.2691 58.5241H56.8551V30.5288C56.8551 23.9192 53.2225 20.2866 46.6129 20.2866H19.3004C12.6908 20.2866 9.0582 23.9192 9.0582 30.5288V58.5241H5.64414C4.52433 58.5241 3.5957 59.4527 3.5957 60.5726C3.5957 61.6924 4.52433 62.621 5.64414 62.621H11.1066H54.8066H60.2691C61.389 62.621 62.3176 61.6924 62.3176 60.5726C62.3176 59.4527 61.389 58.5241 60.2691 58.5241ZM52.7582 35.3085V58.5241H45.9028V35.3085H52.7582ZM30.8809 58.5241H24.0528V35.3085H30.8809V58.5241ZM34.9778 35.3085H41.8059V58.5241H34.9778V35.3085ZM13.1551 35.3085H19.9559V58.5241H13.1551V35.3085Z" fill="#0CAD8E"/>
</svg>
