<svg width="72" height="181" viewBox="0 0 72 181" fill="none" xmlns="http://www.w3.org/2000/svg">
<path d="M-47 105.729C-46.4119 84.7187 -43.0765 65.3814 -34.9857 47.1035C-27.0042 29.061 -14.1162 15.7098 4.11522 7.77316C14.5332 3.24151 25.0603 -0.609122 36.7638 0.0802934C59.7001 1.4339 76.1924 23.327 71.059 45.8255C69.5803 52.3077 66.0097 57.5877 61.4644 62.2286C51.6178 72.2756 41.3594 81.8517 29.8493 90.0154C22.313 95.3626 14.9701 100.962 7.48426 106.376C6.00558 107.444 5.71992 108.377 6.74492 109.924C10.114 115.011 13.3065 120.224 16.7512 125.26C19.1372 128.749 22.313 131.321 26.5894 132.272C27.2532 132.414 27.9169 132.675 28.505 133.02C29.6224 133.676 31.3783 134.239 31.6304 135.172C32.3613 137.905 32.9411 140.906 29.9669 142.974C29.5888 143.235 29.2695 143.571 28.8747 143.807C15.6002 151.626 4.77053 162.488 -6.73964 172.501C-8.87364 174.351 -10.9572 176.276 -13.2257 177.941C-17.6197 181.161 -20.5938 180.724 -24.0721 176.588C-24.3661 176.243 -24.6854 175.89 -25.0551 175.637C-28.8442 173.124 -31.2554 169.466 -32.8349 165.38C-38.6572 150.339 -44.1687 135.189 -45.9918 119.021C-46.5463 114.237 -46.7311 109.42 -47 105.729ZM13.2226 135.878C12.8361 135.517 12.6428 135.29 12.416 135.122C4.09002 129.136 -1.79948 121.098 -6.40355 112.119C-10.3859 104.35 -11.3101 95.9679 -9.78939 87.367C-9.37771 85.0298 -8.23511 83.054 -6.10111 81.8265C-4.08473 80.6579 -1.7827 80.9269 0.0656509 82.4823C2.4517 84.4833 2.71216 85.6267 1.67876 88.5357C1.46032 89.1494 1.64515 89.9145 1.64515 90.2676C8.15638 86.2404 14.4155 81.9946 21.0108 78.371C33.0082 71.7879 43.7287 63.4981 54.029 54.603C55.8689 53.014 57.5157 51.1727 59.0532 49.2894C61.3804 46.4309 62.607 43.1099 62.7751 39.3854C63.5732 22.3265 48.3915 9.00066 31.2439 12.9186C8.50083 18.106 -9.20968 30.6752 -19.1151 52.417C-29.5499 75.3023 -33.6079 99.4234 -29.8356 124.36C-27.9704 136.694 -24.3661 148.767 -21.5348 160.958C-21.476 161.21 -21.2491 161.429 -21.0055 161.816C-12.3183 149.566 -0.312393 141.957 13.2226 135.878Z" fill="#DA4E41"/>
</svg>
